# xmcd
#
# Track frame offsets: 
#        150
#        29794
#        48504
#        54649
#        72103
#        80610
#        95183
#        127525
#        142350
#        147812
#        168918
#
# Disc length: 2613 seconds
#
# Revision: 5
# Processed by: cddbd v1.5.2PL0 Copyright (c) Steve Scherf et al.
# Submitted via: ExactAudioCopyFreeDBPlugin 1.0
#
DISCID=a20a330b
DTITLE=Jethro Tull - Aqualung [40th Anniversary Special Edition] [Disc
DTITLE=1]
DYEAR=2011
DGENRE=Alt. Prog Rock
TTITLE0=Aqualung
TTITLE1=Cross-Eyed Mary
TTITLE2=Cheap Day Return
TTITLE3=Mother Goose
TTITLE4=Wond'ring Aloud
TTITLE5=Up To Me
TTITLE6=My God
TTITLE7=Hymn 43
TTITLE8=Slipstream
TTITLE9=Locomotive Breath
TTITLE10=Wind-Up
EXTD=40th Anniversary Edition
EXTT0=
EXTT1=
EXTT2=
EXTT3=
EXTT4=
EXTT5=
EXTT6=
EXTT7=
EXTT8=
EXTT9=
EXTT10=
PLAYORDER=
